# xmcd
#
# Track frame offsets:
#	150
#	20899
#	38747
#	61406
#	83707
#	97821
#	124121
#	140813
#	167889
#	189421
#	220830
#	242297
#	267953
#
# Disc length: 3890 seconds
# Revision: 0
# Processed by: cddbd v1.5.2PL0 Copyright (c) Steve Scherf et al.
# Submitted via: dBpowerAMP V12.0
#
DISCID=b10f300d
DTITLE=Terrie Odabi - My Blue Soul
DYEAR=2016
DGENRE=Blues
TTITLE0=Gentrification Blues
TTITLE1=Live My Life
TTITLE2=Will You Still Love Me
TTITLE3=He Wouldn't Let Me Go
TTITLE4=Born To Die
TTITLE5=Life Is So Good
TTITLE6=How Dare You
TTITLE7=Ball and Chain
TTITLE8=I Bet You Think I Don't Know
TTITLE9=I Can't Keep
TTITLE10=Wade in the Water
TTITLE11=When You Love Me
TTITLE12=Hold Up the Light
EXTD=
EXTT0=
EXTT1=
EXTT2=
EXTT3=
EXTT4=
EXTT5=
EXTT6=
EXTT7=
EXTT8=
EXTT9=
EXTT10=
EXTT11=
EXTT12=
PLAYORDER=
